<svg id="Ebene_1" data-name="Ebene 1" xmlns="http://www.w3.org/2000/svg" viewBox="0 0 512 512"><defs><style>.cls-1{fill:#fff;}</style></defs><rect class="cls-1" width="512" height="512"/><path class="cls-1" d="M269.77,834.5c-73.44-.06-138.74-28.72-166.42-73-8.46-13.57-10.82-26.14-6.82-36.35s14-17.68,29.11-21.78l9.84-2.67a64.51,64.51,0,0,1,17-2.5c14.42,0,26,5.87,40,20.27,21.39,22,47.11,33.18,76.47,33.18,36.39,0,59-16.17,59-42.2,0-29.67-37.36-40.28-80.63-52.57C182,638.27,100.72,615.17,100.72,520.47c0-37.74,15.52-69.83,44.86-92.8s70.3-35.17,118.26-35.17c74.7,0,132.71,23.6,159.14,64.74,10.61,16.52,13.84,30.89,9.33,41.56-4.08,9.64-14.7,16.45-30.72,19.7l-9.94,2a85.43,85.43,0,0,1-16.87,1.86c-19.67,0-30.24-9.19-42.49-19.83-2.27-2-4.62-4-7.08-6.06-17.37-14.32-35.32-21-56.49-21-33.32,0-54.85,15.79-54.85,40.24,0,35,40.65,45.92,87.72,58.49,32.21,8.61,68.72,18.37,96.41,37.32,31.26,21.41,46.45,51.5,46.45,92,0,38.51-16.83,71.37-48.67,95-31.23,23.19-75.9,36-125.78,36Z" transform="translate(-14 -357)"/><path d="M263.84,397c35.69,0,68.65,5.66,95.32,16.38,27.09,10.89,47.29,26.46,60,46.29,9.77,15.22,12.88,28.14,9,37.38-4.38,10.37-17.35,15-27.46,17l-9.95,2a80.88,80.88,0,0,1-16,1.77c-18,0-27.5-8.26-39.53-18.73-2.3-2-4.68-4.07-7.18-6.13-18.22-15-37.08-22-59.35-22-36.05,0-59.35,17.56-59.35,44.74,0,17.94,9.78,31.78,29.88,42.32,16.27,8.52,38.08,14.35,61.18,20.52,31.86,8.52,68,18.17,95,36.69,14.22,9.73,24.69,21,32,34.29,8.39,15.28,12.47,32.94,12.47,54,0,37-16.2,68.64-46.86,91.4C378,806.1,360,814.8,339.31,820.77,318.15,826.89,294.83,830,270,830h-.32c-34.9,0-68.64-6.68-97.59-19.19-29.23-12.64-51.68-30.53-64.92-51.74-7.68-12.31-9.91-23.49-6.45-32.33,4.34-11.08,16.59-16.49,26.09-19.08l9.85-2.67a60.3,60.3,0,0,1,15.86-2.34c13.07,0,23.72,5.48,36.77,18.91,22.27,22.92,49.08,34.54,79.7,34.54,18.34,0,33.89-4.05,45-11.72,11.94-8.26,18.51-20.68,18.51-35,0-33.07-38.88-44.11-83.9-56.9-32.31-9.18-68.94-19.59-96.93-39.28-14.79-10.4-25.71-22.29-33.37-36.32C109.62,561,105.22,542,105.22,520.47c0-36.31,14.92-67.17,43.14-89.25,13.93-10.91,30.76-19.38,50-25.19,19.84-6,41.87-9,65.46-9m0-9c-99.26,0-167.62,52.19-167.62,132.47,0,161.33,227.26,121.91,227.26,188.93,0,23.27-20.87,37.7-54.49,37.7-28.71,0-53.12-11.1-73.24-31.81-12.86-13.23-25.72-21.64-43.23-21.64a69.61,69.61,0,0,0-18.22,2.65L124.45,699c-33,9-44.08,34.14-24.91,64.85C128.92,810.9,197.28,839,270,839h0c104,0,179-53.08,179-135.46,0-160.22-230.58-110.66-230.58-187.8,0-21.81,19.61-35.74,50.35-35.74,21,0,37.79,6.9,53.62,20s27.24,26.92,52.44,26.92a89.1,89.1,0,0,0,17.76-2l9.95-2c37.09-7.52,46.81-33,24.27-68.1-28.05-43.67-89-66.81-162.92-66.81Z" transform="translate(-14 -357)"/></svg>